M48
; DRILL file {KiCad 8.0.1} date 2024-05-17T10:11:30+0700
; FORMAT={-:-/ absolute / metric / decimal}
; #@! TF.CreationDate,2024-05-17T10:11:30+07:00
; #@! TF.GenerationSoftware,Kicad,Pcbnew,8.0.1
; #@! TF.FileFunction,Plated,1,2,PTH
FMAT,2
METRIC
; #@! TA.AperFunction,Plated,PTH,ViaDrill
T1C0.300
; #@! TA.AperFunction,Plated,PTH,ViaDrill
T2C0.400
; #@! TA.AperFunction,Plated,PTH,ComponentDrill
T3C0.750
; #@! TA.AperFunction,Plated,PTH,ComponentDrill
T4C0.800
; #@! TA.AperFunction,Plated,PTH,ComponentDrill
T5C1.000
; #@! TA.AperFunction,Plated,PTH,ViaDrill
T6C1.020
; #@! TA.AperFunction,Plated,PTH,ComponentDrill
T7C1.020
; #@! TA.AperFunction,Plated,PTH,ComponentDrill
T8C1.200
%
G90
G05
T1
X162.43Y-68.54
X163.29Y-67.94
X166.19Y-88.98
X166.91Y-88.31
X181.79Y-57.19
X183.08Y-56.23
X183.74Y-55.37
X184.42Y-54.56
X186.83Y-80.87
X187.526Y-61.606
X188.1Y-60.51
X188.47Y-80.59
X190.0Y-64.02
X190.25Y-89.77
X191.08Y-63.99
X191.38Y-90.58
X194.62Y-91.24
X199.25Y-90.94
X200.64Y-83.1
X203.159Y-72.349
X203.25Y-90.02
X203.75Y-71.67
X206.18Y-82.24
X206.55Y-89.38
X207.38Y-80.88
X208.376Y-80.209
X210.21Y-75.48
X212.93Y-80.35
X214.38Y-79.37
X215.998Y-78.542
X218.2Y-80.17
X222.48Y-79.64
T2
X213.78Y-82.48
X216.5Y-81.01
X223.0Y-85.83
X232.92Y-97.72
T3
X114.105Y-67.0
X115.51Y-106.56
X116.105Y-67.0
X117.51Y-106.56
X118.105Y-67.0
X119.51Y-106.56
X120.105Y-67.0
X121.51Y-106.56
X122.105Y-67.0
X123.51Y-106.56
X124.105Y-67.0
X125.51Y-106.56
X126.105Y-67.0
X127.51Y-106.56
X128.105Y-67.0
X129.51Y-106.56
X130.105Y-67.0
X131.51Y-106.56
X155.7Y-62.62
X155.7Y-64.62
X155.7Y-66.62
X155.7Y-68.62
X155.7Y-70.62
X155.7Y-72.62
X155.7Y-78.13
X155.7Y-80.13
X170.78Y-93.79
X172.78Y-93.79
X217.12Y-52.13
X217.12Y-54.13
X218.843Y-70.69
X218.843Y-76.68
X220.843Y-70.69
X220.843Y-76.68
X222.843Y-70.69
X222.843Y-76.68
X224.843Y-70.69
X224.843Y-76.68
X226.843Y-70.69
X226.843Y-76.68
X228.843Y-70.69
X228.843Y-76.68
X230.843Y-70.69
X230.843Y-76.68
X232.843Y-70.69
X232.843Y-76.68
X234.843Y-70.69
X234.843Y-76.68
X245.6Y-62.3
X245.6Y-64.3
X245.6Y-66.3
X245.6Y-68.3
X245.6Y-70.3
X245.6Y-72.3
X245.6Y-77.69
X245.6Y-79.69
T4
X118.52Y-56.52
X118.52Y-59.06
X118.52Y-61.6
X119.73Y-96.18
X119.73Y-98.72
X119.73Y-101.26
X126.14Y-56.52
X126.14Y-59.06
X126.14Y-61.6
X127.35Y-96.18
X127.35Y-98.72
X127.35Y-101.26
T5
X118.535Y-48.46
X119.77Y-88.12
X121.075Y-48.46
X122.31Y-88.12
X123.615Y-48.46
X124.85Y-88.12
X126.155Y-48.46
X127.39Y-88.12
X153.48Y-87.43
X153.48Y-89.97
X153.48Y-92.51
X156.02Y-87.43
X156.02Y-89.97
X156.02Y-92.51
X161.49Y-87.87
X161.49Y-90.41
X161.49Y-92.95
X161.49Y-95.49
X171.66Y-84.86
X171.66Y-87.4
X173.083Y-102.41
X173.205Y-79.72
X174.2Y-84.86
X174.2Y-87.4
X175.583Y-102.41
X175.745Y-79.72
X176.74Y-84.86
X176.74Y-87.4
X179.28Y-84.86
X179.28Y-87.4
X181.82Y-84.86
X181.82Y-87.4
X182.46Y-93.53
X184.36Y-84.86
X184.36Y-87.4
X185.0Y-93.53
X186.9Y-84.86
X186.9Y-87.4
X187.54Y-93.53
X189.44Y-84.86
X189.44Y-87.4
X189.58Y-101.36
X189.58Y-103.9
X189.58Y-106.44
X189.92Y-77.26
X190.08Y-93.53
X191.98Y-84.86
X191.98Y-87.4
X192.12Y-101.36
X192.12Y-103.9
X192.12Y-106.44
X192.46Y-77.26
X192.62Y-93.53
X194.52Y-84.86
X194.52Y-87.4
X195.0Y-77.26
X195.16Y-93.53
X196.53Y-101.44
X196.53Y-103.98
X196.53Y-106.52
X197.06Y-84.86
X197.06Y-87.4
X197.54Y-77.26
X197.7Y-93.53
X199.6Y-84.86
X199.6Y-87.4
X200.08Y-77.26
X200.24Y-93.53
X202.14Y-84.86
X202.14Y-87.4
X202.62Y-77.26
X202.78Y-93.53
X204.68Y-84.86
X204.68Y-87.4
X207.22Y-84.86
X207.22Y-87.4
X209.76Y-84.86
X209.76Y-87.4
X212.2Y-92.44
X212.2Y-96.3
X212.3Y-84.86
X212.3Y-87.4
X214.74Y-92.44
X214.74Y-96.3
X214.84Y-84.86
X214.84Y-87.4
X217.28Y-92.44
X217.28Y-96.3
X217.38Y-84.86
X217.38Y-87.4
X219.92Y-84.86
X219.92Y-87.4
X224.22Y-60.395
X226.76Y-60.395
X229.3Y-60.395
X231.84Y-60.395
X234.38Y-60.395
X236.92Y-60.395
X239.46Y-60.395
X246.695Y-83.99
X246.695Y-86.53
X246.695Y-89.07
X246.695Y-91.61
X246.695Y-94.15
X246.695Y-96.69
X246.695Y-99.23
X246.695Y-101.77
X246.695Y-104.31
X246.695Y-106.85
T6
X207.12Y-51.56
T7
X166.665Y-48.35
X166.665Y-73.75
X169.205Y-48.35
X169.205Y-73.75
X171.745Y-48.35
X171.745Y-73.75
X174.285Y-48.35
X174.285Y-73.75
X176.825Y-48.35
X176.825Y-73.75
X179.365Y-48.35
X179.365Y-73.75
X181.905Y-48.35
X181.905Y-73.75
X184.445Y-48.35
X184.445Y-73.75
X186.985Y-48.35
X186.985Y-73.75
X189.525Y-48.35
X189.525Y-73.75
X192.065Y-48.35
X192.065Y-73.75
X194.605Y-48.35
X194.605Y-73.75
X197.145Y-48.35
X197.145Y-73.75
X199.685Y-48.35
X199.685Y-73.75
X202.225Y-48.35
X202.225Y-73.75
T8
X163.76Y-103.16
X167.26Y-103.16
X181.407Y-103.16
X184.907Y-103.16
M30
