%TF.GenerationSoftware,KiCad,Pcbnew,8.0.1*%
%TF.CreationDate,2024-05-17T10:11:40+07:00*%
%TF.ProjectId,ESP32 Shield,45535033-3220-4536-9869-656c642e6b69,rev?*%
%TF.SameCoordinates,Original*%
%TF.FileFunction,Copper,L1,Top*%
%TF.FilePolarity,Positive*%
%FSLAX46Y46*%
G04 Gerber Fmt 4.6, Leading zero omitted, Abs format (unit mm)*
G04 Created by KiCad (PCBNEW 8.0.1) date 2024-05-17 10:11:40*
%MOMM*%
%LPD*%
G01*
G04 APERTURE LIST*
G04 Aperture macros list*
%AMRoundRect*
0 Rectangle with rounded corners*
0 $1 Rounding radius*
0 $2 $3 $4 $5 $6 $7 $8 $9 X,Y pos of 4 corners*
0 Add a 4 corners polygon primitive as box body*
4,1,4,$2,$3,$4,$5,$6,$7,$8,$9,$2,$3,0*
0 Add four circle primitives for the rounded corners*
1,1,$1+$1,$2,$3*
1,1,$1+$1,$4,$5*
1,1,$1+$1,$6,$7*
1,1,$1+$1,$8,$9*
0 Add four rect primitives between the rounded corners*
20,1,$1+$1,$2,$3,$4,$5,0*
20,1,$1+$1,$4,$5,$6,$7,0*
20,1,$1+$1,$6,$7,$8,$9,0*
20,1,$1+$1,$8,$9,$2,$3,0*%
G04 Aperture macros list end*
%TA.AperFunction,ComponentPad*%
%ADD10R,1.700000X1.700000*%
%TD*%
%TA.AperFunction,ComponentPad*%
%ADD11O,1.700000X1.700000*%
%TD*%
%TA.AperFunction,SMDPad,CuDef*%
%ADD12RoundRect,0.250000X-0.350000X-0.450000X0.350000X-0.450000X0.350000X0.450000X-0.350000X0.450000X0*%
%TD*%
%TA.AperFunction,ComponentPad*%
%ADD13RoundRect,0.250000X0.625000X-0.350000X0.625000X0.350000X-0.625000X0.350000X-0.625000X-0.350000X0*%
%TD*%
%TA.AperFunction,ComponentPad*%
%ADD14O,1.750000X1.200000*%
%TD*%
%TA.AperFunction,ComponentPad*%
%ADD15RoundRect,0.250000X-0.600000X-0.750000X0.600000X-0.750000X0.600000X0.750000X-0.600000X0.750000X0*%
%TD*%
%TA.AperFunction,ComponentPad*%
%ADD16O,1.700000X2.000000*%
%TD*%
%TA.AperFunction,ComponentPad*%
%ADD17R,2.400000X2.400000*%
%TD*%
%TA.AperFunction,ComponentPad*%
%ADD18C,2.400000*%
%TD*%
%TA.AperFunction,ComponentPad*%
%ADD19RoundRect,0.250000X-0.625000X0.350000X-0.625000X-0.350000X0.625000X-0.350000X0.625000X0.350000X0*%
%TD*%
%TA.AperFunction,ComponentPad*%
%ADD20RoundRect,0.250000X0.350000X0.625000X-0.350000X0.625000X-0.350000X-0.625000X0.350000X-0.625000X0*%
%TD*%
%TA.AperFunction,ComponentPad*%
%ADD21O,1.200000X1.750000*%
%TD*%
%TA.AperFunction,ComponentPad*%
%ADD22RoundRect,0.250000X-0.350000X-0.625000X0.350000X-0.625000X0.350000X0.625000X-0.350000X0.625000X0*%
%TD*%
%TA.AperFunction,ComponentPad*%
%ADD23C,1.700000*%
%TD*%
%TA.AperFunction,ComponentPad*%
%ADD24C,1.524000*%
%TD*%
%TA.AperFunction,ViaPad*%
%ADD25C,2.000000*%
%TD*%
%TA.AperFunction,ViaPad*%
%ADD26C,0.800000*%
%TD*%
%TA.AperFunction,ViaPad*%
%ADD27C,0.700000*%
%TD*%
%TA.AperFunction,Conductor*%
%ADD28C,0.180000*%
%TD*%
%TA.AperFunction,Conductor*%
%ADD29C,0.500000*%
%TD*%
%TA.AperFunction,Conductor*%
%ADD30C,0.800000*%
%TD*%
%TA.AperFunction,Conductor*%
%ADD31C,2.000000*%
%TD*%
%TA.AperFunction,Conductor*%
%ADD32C,0.300000*%
%TD*%
%TA.AperFunction,Conductor*%
%ADD33C,1.200000*%
%TD*%
%TA.AperFunction,Conductor*%
%ADD34C,1.500000*%
%TD*%
G04 APERTURE END LIST*
D10*
%TO.P,J27,1,Pin_1*%
%TO.N,/BLUE2_EAR*%
X127390000Y-88120000D03*
D11*
%TO.P,J27,2,Pin_2*%
%TO.N,/RED2_EAR*%
X124850000Y-88120000D03*
%TO.P,J27,3,Pin_3*%
%TO.N,/GREEN2_EAR*%
X122310000Y-88120000D03*
%TO.P,J27,4,Pin_4*%
%TO.N,GND_EAR*%
X119770000Y-88120000D03*
%TD*%
D12*
%TO.P,R3,1*%
%TO.N,/GAIN*%
X233390000Y-56555000D03*
%TO.P,R3,2*%
%TO.N,GND*%
X235390000Y-56555000D03*
%TD*%
D10*
%TO.P,J17,1,Pin_1*%
%TO.N,+5V*%
X202780000Y-93530000D03*
D11*
%TO.P,J17,2,Pin_2*%
%TO.N,GND*%
X200240000Y-93530000D03*
%TO.P,J17,3,Pin_3*%
%TO.N,/CS*%
X197700000Y-93530000D03*
%TO.P,J17,4,Pin_4*%
%TO.N,/GPIO23*%
X195160000Y-93530000D03*
%TO.P,J17,5,Pin_5*%
%TO.N,/DC{slash}RS*%
X192620000Y-93530000D03*
%TO.P,J17,6,Pin_6*%
%TO.N,/GPIO10*%
X190080000Y-93530000D03*
%TO.P,J17,7,Pin_7*%
%TO.N,/GPIO11*%
X187540000Y-93530000D03*
%TO.P,J17,8,Pin_8*%
%TO.N,/GPIO24*%
X185000000Y-93530000D03*
%TO.P,J17,9,Pin_9*%
%TO.N,/GPIO9*%
X182460000Y-93530000D03*
%TD*%
D10*
%TO.P,J16,1,Pin_1*%
%TO.N,+3.3VA*%
X212200000Y-92440000D03*
D11*
%TO.P,J16,2,Pin_2*%
%TO.N,/GPIO5*%
X214740000Y-92440000D03*
%TO.P,J16,3,Pin_3*%
%TO.N,GND*%
X217280000Y-92440000D03*
%TD*%
D10*
%TO.P,J12,1,Pin_1*%
%TO.N,+5V*%
X196530000Y-106520000D03*
D11*
%TO.P,J12,2,Pin_2*%
%TO.N,+3.3VA*%
X196530000Y-103980000D03*
%TO.P,J12,3,Pin_3*%
%TO.N,GND*%
X196530000Y-101440000D03*
%TD*%
D13*
%TO.P,J29,1,Pin_1*%
%TO.N,+5V*%
X217120000Y-54130000D03*
D14*
%TO.P,J29,2,Pin_2*%
%TO.N,GND*%
X217120000Y-52130000D03*
%TD*%
D10*
%TO.P,J21,1,Pin_1*%
%TO.N,/GPIO25*%
X161490000Y-95490000D03*
D11*
%TO.P,J21,2,Pin_2*%
%TO.N,/GPIO13*%
X161490000Y-92950000D03*
%TO.P,J21,3,Pin_3*%
%TO.N,/GPIO26*%
X161490000Y-90410000D03*
%TO.P,J21,4,Pin_4*%
%TO.N,GND*%
X161490000Y-87870000D03*
%TD*%
D12*
%TO.P,R2,1*%
%TO.N,/Battery ADC*%
X180300000Y-80780000D03*
%TO.P,R2,2*%
%TO.N,GND*%
X182300000Y-80780000D03*
%TD*%
%TO.P,R1,1*%
%TO.N,+12V*%
X180300000Y-77830000D03*
%TO.P,R1,2*%
%TO.N,/Battery ADC*%
X182300000Y-77830000D03*
%TD*%
D15*
%TO.P,J2,1,Pin_1*%
%TO.N,+5V*%
X173083333Y-102410000D03*
D16*
%TO.P,J2,2,Pin_2*%
%TO.N,GND*%
X175583333Y-102410000D03*
%TD*%
D17*
%TO.P,J5,1,Pin_1*%
%TO.N,+7.5V*%
X181406666Y-103160000D03*
D18*
%TO.P,J5,2,Pin_2*%
%TO.N,GND*%
X184906666Y-103160000D03*
%TD*%
D10*
%TO.P,J10,1,Pin_1*%
%TO.N,+3.3VRP*%
X219920000Y-84860000D03*
D11*
%TO.P,J10,2,Pin_2*%
%TO.N,+5VRP*%
X219920000Y-87400000D03*
%TO.P,J10,3,Pin_3*%
%TO.N,/GPIO2*%
X217380000Y-84860000D03*
%TO.P,J10,4,Pin_4*%
%TO.N,+5VRP*%
X217380000Y-87400000D03*
%TO.P,J10,5,Pin_5*%
%TO.N,/GPIO3*%
X214840000Y-84860000D03*
%TO.P,J10,6,Pin_6*%
%TO.N,GND*%
X214840000Y-87400000D03*
%TO.P,J10,7,Pin_7*%
%TO.N,/GPIO4*%
X212300000Y-84860000D03*
%TO.P,J10,8,Pin_8*%
%TO.N,/GPIO14*%
X212300000Y-87400000D03*
%TO.P,J10,9,Pin_9*%
%TO.N,GND*%
X209760000Y-84860000D03*
%TO.P,J10,10,Pin_10*%
%TO.N,/GPIO15*%
X209760000Y-87400000D03*
%TO.P,J10,11,Pin_11*%
%TO.N,/DC{slash}RS*%
X207220000Y-84860000D03*
%TO.P,J10,12,Pin_12*%
%TO.N,/BCLK*%
X207220000Y-87400000D03*
%TO.P,J10,13,Pin_13*%
%TO.N,/GPIO27*%
X204680000Y-84860000D03*
%TO.P,J10,14,Pin_14*%
%TO.N,GND*%
X204680000Y-87400000D03*
%TO.P,J10,15,Pin_15*%
%TO.N,/BLUE2*%
X202140000Y-84860000D03*
%TO.P,J10,16,Pin_16*%
%TO.N,/GPIO23*%
X202140000Y-87400000D03*
%TO.P,J10,17,Pin_17*%
%TO.N,+3.3VRP*%
X199600000Y-84860000D03*
%TO.P,J10,18,Pin_18*%
%TO.N,/GPIO24*%
X199600000Y-87400000D03*
%TO.P,J10,19,Pin_19*%
%TO.N,/GPIO10*%
X197060000Y-84860000D03*
%TO.P,J10,20,Pin_20*%
%TO.N,GND*%
X197060000Y-87400000D03*
%TO.P,J10,21,Pin_21*%
%TO.N,/GPIO9*%
X194520000Y-84860000D03*
%TO.P,J10,22,Pin_22*%
%TO.N,/GPIO25*%
X194520000Y-87400000D03*
%TO.P,J10,23,Pin_23*%
%TO.N,/GPIO11*%
X191980000Y-84860000D03*
%TO.P,J10,24,Pin_24*%
%TO.N,/GPIO8*%
X191980000Y-87400000D03*
%TO.P,J10,25,Pin_25*%
%TO.N,GND*%
X189440000Y-84860000D03*
%TO.P,J10,26,Pin_26*%
%TO.N,/CS*%
X189440000Y-87400000D03*
%TO.P,J10,27,Pin_27*%
%TO.N,/ID_SD*%
X186900000Y-84860000D03*
%TO.P,J10,28,Pin_28*%
%TO.N,/ID_SC*%
X186900000Y-87400000D03*
%TO.P,J10,29,Pin_29*%
%TO.N,/GPIO5*%
X184360000Y-84860000D03*
%TO.P,J10,30,Pin_30*%
%TO.N,GND*%
X184360000Y-87400000D03*
%TO.P,J10,31,Pin_31*%
%TO.N,/GPIO6*%
X181820000Y-84860000D03*
%TO.P,J10,32,Pin_32*%
%TO.N,/GPIO12*%
X181820000Y-87400000D03*
%TO.P,J10,33,Pin_33*%
%TO.N,/GPIO13*%
X179280000Y-84860000D03*
%TO.P,J10,34,Pin_34*%
%TO.N,GND*%
X179280000Y-87400000D03*
%TO.P,J10,35,Pin_35*%
%TO.N,/GPIO19*%
X176740000Y-84860000D03*
%TO.P,J10,36,Pin_36*%
%TO.N,/BLUE1*%
X176740000Y-87400000D03*
%TO.P,J10,37,Pin_37*%
%TO.N,/GPIO26*%
X174200000Y-84860000D03*
%TO.P,J10,38,Pin_38*%
%TO.N,/GPIO20*%
X174200000Y-87400000D03*
%TO.P,J10,39,Pin_39*%
%TO.N,GND*%
X171660000Y-84860000D03*
%TO.P,J10,40,Pin_40*%
%TO.N,/DIN*%
X171660000Y-87400000D03*
%TD*%
D13*
%TO.P,J13,1,Pin_1*%
%TO.N,/Motor 1 (M1)*%
X245600000Y-72300000D03*
D14*
%TO.P,J13,2,Pin_2*%
%TO.N,GND*%
X245600000Y-70300000D03*
%TO.P,J13,3,Pin_3*%
%TO.N,/Motor 1 (C1)*%
X245600000Y-68300000D03*
%TO.P,J13,4,Pin_4*%
%TO.N,/Motor 1 (C2)*%
X245600000Y-66300000D03*
%TO.P,J13,5,Pin_5*%
%TO.N,+3.3V*%
X245600000Y-64300000D03*
%TO.P,J13,6,Pin_6*%
%TO.N,/Motor 1 (M2)*%
X245600000Y-62300000D03*
%TD*%
D19*
%TO.P,J20,1,Pin_1*%
%TO.N,/Motor 2 (M1)*%
X155700000Y-78130000D03*
D14*
%TO.P,J20,2,Pin_2*%
%TO.N,/Motor 2 (M2)*%
X155700000Y-80130000D03*
%TD*%
D20*
%TO.P,J9,1,Pin_1*%
%TO.N,GND*%
X234843175Y-76680000D03*
D21*
%TO.P,J9,2,Pin_2*%
%TO.N,+3.3VA*%
X232843175Y-76680000D03*
%TO.P,J9,3,Pin_3*%
%TO.N,/GPIO20*%
X230843175Y-76680000D03*
%TO.P,J9,4,Pin_4*%
%TO.N,/BCLK*%
X228843175Y-76680000D03*
%TO.P,J9,5,Pin_5*%
%TO.N,/GPIO19*%
X226843175Y-76680000D03*
%TO.P,J9,6,Pin_6*%
%TO.N,+3.3VA*%
X224843175Y-76680000D03*
%TO.P,J9,7,Pin_7*%
%TO.N,/BLUE2*%
X222843175Y-76680000D03*
%TO.P,J9,8,Pin_8*%
%TO.N,/GPIO27*%
X220843175Y-76680000D03*
%TO.P,J9,9,Pin_9*%
%TO.N,/GPIO4*%
X218843175Y-76680000D03*
%TD*%
D17*
%TO.P,J1,1,Pin_1*%
%TO.N,+5V*%
X163760000Y-103160000D03*
D18*
%TO.P,J1,2,Pin_2*%
%TO.N,GND*%
X167260000Y-103160000D03*
%TD*%
D10*
%TO.P,J26,1,Pin_1*%
%TO.N,/BLUE1_EAR*%
X126155000Y-48460000D03*
D11*
%TO.P,J26,2,Pin_2*%
%TO.N,/RED1_EAR*%
X123615000Y-48460000D03*
%TO.P,J26,3,Pin_3*%
%TO.N,/GREEN1_EAR*%
X121075000Y-48460000D03*
%TO.P,J26,4,Pin_4*%
%TO.N,GND_EAR*%
X118535000Y-48460000D03*
%TD*%
D20*
%TO.P,J8,1,Pin_1*%
%TO.N,GND*%
X234843175Y-70690000D03*
D21*
%TO.P,J8,2,Pin_2*%
%TO.N,+3.3VA*%
X232843175Y-70690000D03*
%TO.P,J8,3,Pin_3*%
%TO.N,/GPIO20*%
X230843175Y-70690000D03*
%TO.P,J8,4,Pin_4*%
%TO.N,/BCLK*%
X228843175Y-70690000D03*
%TO.P,J8,5,Pin_5*%
%TO.N,/GPIO19*%
X226843175Y-70690000D03*
%TO.P,J8,6,Pin_6*%
%TO.N,GND*%
X224843175Y-70690000D03*
%TO.P,J8,7,Pin_7*%
%TO.N,/GPIO8*%
X222843175Y-70690000D03*
%TO.P,J8,8,Pin_8*%
%TO.N,/GPIO12*%
X220843175Y-70690000D03*
%TO.P,J8,9,Pin_9*%
%TO.N,/BLUE1*%
X218843175Y-70690000D03*
%TD*%
D10*
%TO.P,J4,1,Pin_1*%
%TO.N,/SIG_4*%
X189580000Y-101360000D03*
D11*
%TO.P,J4,2,Pin_2*%
%TO.N,/SIG_3*%
X192120000Y-101360000D03*
%TO.P,J4,3,Pin_3*%
%TO.N,+7.5V*%
X189580000Y-103900000D03*
%TO.P,J4,4,Pin_4*%
X192120000Y-103900000D03*
%TO.P,J4,5,Pin_5*%
%TO.N,GND*%
X189580000Y-106440000D03*
%TO.P,J4,6,Pin_6*%
X192120000Y-106440000D03*
%TD*%
D10*
%TO.P,J15,1,Pin_1*%
%TO.N,+3.3VA*%
X212200000Y-96300000D03*
D11*
%TO.P,J15,2,Pin_2*%
%TO.N,/GPIO6*%
X214740000Y-96300000D03*
%TO.P,J15,3,Pin_3*%
%TO.N,GND*%
X217280000Y-96300000D03*
%TD*%
D10*
%TO.P,J3,1,Pin_1*%
%TO.N,/SIG_2*%
X153480000Y-87430000D03*
D11*
%TO.P,J3,2,Pin_2*%
%TO.N,/SIG_1*%
X156020000Y-87430000D03*
%TO.P,J3,3,Pin_3*%
%TO.N,+5V*%
X153480000Y-89970000D03*
%TO.P,J3,4,Pin_4*%
X156020000Y-89970000D03*
%TO.P,J3,5,Pin_5*%
%TO.N,GND*%
X153480000Y-92510000D03*
%TO.P,J3,6,Pin_6*%
X156020000Y-92510000D03*
%TD*%
D22*
%TO.P,J22,1,Pin_1*%
%TO.N,/BLUE1_EAR*%
X114105000Y-67000000D03*
D21*
%TO.P,J22,2,Pin_2*%
%TO.N,/GREEN1_EAR*%
X116105000Y-67000000D03*
%TO.P,J22,3,Pin_3*%
%TO.N,/RED1_EAR*%
X118105000Y-67000000D03*
%TO.P,J22,4,Pin_4*%
%TO.N,GND_EAR*%
X120105000Y-67000000D03*
%TO.P,J22,5,Pin_5*%
%TO.N,/WS_EAR*%
X122105000Y-67000000D03*
%TO.P,J22,6,Pin_6*%
%TO.N,/SCK_EAR*%
X124105000Y-67000000D03*
%TO.P,J22,7,Pin_7*%
%TO.N,/SD_EAR*%
X126105000Y-67000000D03*
%TO.P,J22,8,Pin_8*%
%TO.N,+3.3V_EAR*%
X128105000Y-67000000D03*
%TO.P,J22,9,Pin_9*%
%TO.N,GND_EAR*%
X130105000Y-67000000D03*
%TD*%
D19*
%TO.P,J14,1,Pin_1*%
%TO.N,/Motor 2 (M1)*%
X155700000Y-62620000D03*
D14*
%TO.P,J14,2,Pin_2*%
%TO.N,GND*%
X155700000Y-64620000D03*
%TO.P,J14,3,Pin_3*%
%TO.N,/Motor 2 (C1)*%
X155700000Y-66620000D03*
%TO.P,J14,4,Pin_4*%
%TO.N,/Motor 2 (C2)*%
X155700000Y-68620000D03*
%TO.P,J14,5,Pin_5*%
%TO.N,+3.3V*%
X155700000Y-70620000D03*
%TO.P,J14,6,Pin_6*%
%TO.N,/Motor 2 (M2)*%
X155700000Y-72620000D03*
%TD*%
D10*
%TO.P,U1,1,3V3*%
%TO.N,+3.3V*%
X202225000Y-48350000D03*
D23*
%TO.P,U1,2,GND*%
%TO.N,GND*%
X199685000Y-48350000D03*
%TO.P,U1,3,D15*%
%TO.N,/Motor 2 (C2)*%
X197145000Y-48350000D03*
%TO.P,U1,4,D2*%
%TO.N,/SIG_1*%
X194605000Y-48350000D03*
%TO.P,U1,5,D4*%
%TO.N,/SIG_2*%
X192065000Y-48350000D03*
%TO.P,U1,6,RX2*%
%TO.N,unconnected-(U1-RX2-Pad6)*%
X189525000Y-48350000D03*
%TO.P,U1,7,TX2*%
%TO.N,unconnected-(U1-TX2-Pad7)*%
X186985000Y-48350000D03*
%TO.P,U1,8,D5*%
%TO.N,/Motor 2 (C1)*%
X184445000Y-48350000D03*
%TO.P,U1,9,D18*%
%TO.N,/SIG_3*%
X181905000Y-48350000D03*
%TO.P,U1,10,D19*%
%TO.N,/SIG_4*%
X179365000Y-48350000D03*
%TO.P,U1,11,D21*%
%TO.N,/GPIO2*%
X176825000Y-48350000D03*
%TO.P,U1,12,RX0*%
%TO.N,/GPIO14*%
X174285000Y-48350000D03*
%TO.P,U1,13,TX0*%
%TO.N,/GPIO15*%
X171745000Y-48350000D03*
%TO.P,U1,14,D22*%
%TO.N,/GPIO3*%
X169205000Y-48350000D03*
%TO.P,U1,15,D23*%
%TO.N,unconnected-(U1-D23-Pad15)*%
X166665000Y-48350000D03*
%TO.P,U1,16,EN*%
%TO.N,unconnected-(U1-EN-Pad16)*%
X166665000Y-73750000D03*
%TO.P,U1,17,VP*%
%TO.N,unconnected-(U1-VP-Pad17)*%
X169205000Y-73750000D03*
%TO.P,U1,18,VN*%
%TO.N,unconnected-(U1-VN-Pad18)*%
X171745000Y-73750000D03*
%TO.P,U1,19,D34*%
%TO.N,unconnected-(U1-D34-Pad19)*%
X174285000Y-73750000D03*
%TO.P,U1,20,D35*%
%TO.N,/Battery ADC*%
X176825000Y-73750000D03*
%TO.P,U1,21,D32*%
%TO.N,/ENA*%
X179365000Y-73750000D03*
%TO.P,U1,22,D33*%
%TO.N,/IN1*%
X181905000Y-73750000D03*
%TO.P,U1,23,D25*%
%TO.N,/IN2*%
X184445000Y-73750000D03*
%TO.P,U1,24,D26*%
%TO.N,/IN3*%
X186985000Y-73750000D03*
%TO.P,U1,25,D27*%
%TO.N,/IN4*%
X189525000Y-73750000D03*
%TO.P,U1,26,D14*%
%TO.N,/ENB*%
X192065000Y-73750000D03*
%TO.P,U1,27,D12*%
%TO.N,/Motor 1 (C1)*%
X194605000Y-73750000D03*
%TO.P,U1,28,D13*%
%TO.N,/Motor 1 (C2)*%
X197145000Y-73750000D03*
%TO.P,U1,29,GND*%
%TO.N,GND*%
X199685000Y-73750000D03*
%TO.P,U1,30,VIN*%
%TO.N,unconnected-(U1-VIN-Pad30)*%
X202225000Y-73750000D03*
%TD*%
D10*
%TO.P,J11,1,Pin_1*%
%TO.N,+12V*%
X173205000Y-79720000D03*
D11*
%TO.P,J11,2,Pin_2*%
%TO.N,GND*%
X175745000Y-79720000D03*
%TD*%
D22*
%TO.P,J23,1,Pin_1*%
%TO.N,/RED2_EAR*%
X115510000Y-106560000D03*
D21*
%TO.P,J23,2,Pin_2*%
%TO.N,/GREEN2_EAR*%
X117510000Y-106560000D03*
%TO.P,J23,3,Pin_3*%
%TO.N,/BLUE2_EAR*%
X119510000Y-106560000D03*
%TO.P,J23,4,Pin_4*%
%TO.N,+3.3V_EAR*%
X121510000Y-106560000D03*
%TO.P,J23,5,Pin_5*%
%TO.N,/WS_EAR*%
X123510000Y-106560000D03*
%TO.P,J23,6,Pin_6*%
%TO.N,/SCK_EAR*%
X125510000Y-106560000D03*
%TO.P,J23,7,Pin_7*%
%TO.N,/SD_EAR*%
X127510000Y-106560000D03*
%TO.P,J23,8,Pin_8*%
%TO.N,+3.3V_EAR*%
X129510000Y-106560000D03*
%TO.P,J23,9,Pin_9*%
%TO.N,GND_EAR*%
X131510000Y-106560000D03*
%TD*%
D22*
%TO.P,J30,1,Pin_1*%
%TO.N,+5V*%
X170780000Y-93790000D03*
D21*
%TO.P,J30,2,Pin_2*%
%TO.N,GND*%
X172780000Y-93790000D03*
%TD*%
D11*
%TO.P,J28,10,Pin_10*%
%TO.N,unconnected-(J28-Pin_10-Pad10)*%
X246695000Y-83990000D03*
%TO.P,J28,9,Pin_9*%
%TO.N,unconnected-(J28-Pin_9-Pad9)*%
X246695000Y-86530000D03*
%TO.P,J28,8,Pin_8*%
%TO.N,unconnected-(J28-Pin_8-Pad8)*%
X246695000Y-89070000D03*
%TO.P,J28,7,Pin_7*%
%TO.N,unconnected-(J28-Pin_7-Pad7)*%
X246695000Y-91610000D03*
%TO.P,J28,6,Pin_6*%
%TO.N,unconnected-(J28-Pin_6-Pad6)*%
X246695000Y-94150000D03*
%TO.P,J28,5,Pin_5*%
%TO.N,unconnected-(J28-Pin_5-Pad5)*%
X246695000Y-96690000D03*
%TO.P,J28,4,Pin_4*%
%TO.N,/GPIO2*%
X246695000Y-99230000D03*
%TO.P,J28,3,Pin_3*%
%TO.N,/GPIO3*%
X246695000Y-101770000D03*
%TO.P,J28,2,Pin_2*%
%TO.N,GND*%
X246695000Y-104310000D03*
D10*
%TO.P,J28,1,Pin_1*%
%TO.N,+3.3VA*%
X246695000Y-106850000D03*
%TD*%
D13*
%TO.P,J19,1,Pin_1*%
%TO.N,/Motor 1 (M1)*%
X245600000Y-79690000D03*
D14*
%TO.P,J19,2,Pin_2*%
%TO.N,/Motor 1 (M2)*%
X245600000Y-77690000D03*
%TD*%
D10*
%TO.P,J7,1,Pin_1*%
%TO.N,+5V*%
X239460000Y-60395000D03*
D11*
%TO.P,J7,2,Pin_2*%
%TO.N,GND*%
X236920000Y-60395000D03*
%TO.P,J7,3,Pin_3*%
%TO.N,/GPIO20*%
X234380000Y-60395000D03*
%TO.P,J7,4,Pin_4*%
%TO.N,/GAIN*%
X231840000Y-60395000D03*
%TO.P,J7,5,Pin_5*%
%TO.N,/DIN*%
X229300000Y-60395000D03*
%TO.P,J7,6,Pin_6*%
%TO.N,/BCLK*%
X226760000Y-60395000D03*
%TO.P,J7,7,Pin_7*%
%TO.N,/GPIO19*%
X224220000Y-60395000D03*
%TD*%
D24*
%TO.P,J24,1,Pin_1*%
%TO.N,/SD_EAR*%
X126140000Y-56520000D03*
%TO.P,J24,2,Pin_2*%
%TO.N,+3.3V_EAR*%
X126140000Y-59060000D03*
%TO.P,J24,3,Pin_3*%
%TO.N,GND_EAR*%
X126140000Y-61600000D03*
%TO.P,J24,4,Pin_4*%
%TO.N,/SCK_EAR*%
X118520000Y-56520000D03*
%TO.P,J24,5,Pin_5*%
%TO.N,/WS_EAR*%
X118520000Y-59060000D03*
%TO.P,J24,6,Pin_6*%
%TO.N,GND_EAR*%
X118520000Y-61600000D03*
%TD*%
%TO.P,J25,1,Pin_1*%
%TO.N,/SD_EAR*%
X127350000Y-96180000D03*
%TO.P,J25,2,Pin_2*%
%TO.N,+3.3V_EAR*%
X127350000Y-98720000D03*
%TO.P,J25,3,Pin_3*%
%TO.N,GND_EAR*%
X127350000Y-101260000D03*
%TO.P,J25,4,Pin_4*%
%TO.N,/SCK_EAR*%
X119730000Y-96180000D03*
%TO.P,J25,5,Pin_5*%
%TO.N,/WS_EAR*%
X119730000Y-98720000D03*
%TO.P,J25,6,Pin_6*%
%TO.N,+3.3V_EAR*%
X119730000Y-101260000D03*
%TD*%
D10*
%TO.P,J18,1,Pin_1*%
%TO.N,/ENA*%
X189920000Y-77260000D03*
D11*
%TO.P,J18,2,Pin_2*%
%TO.N,/IN1*%
X192460000Y-77260000D03*
%TO.P,J18,3,Pin_3*%
%TO.N,/IN2*%
X195000000Y-77260000D03*
%TO.P,J18,4,Pin_4*%
%TO.N,/IN3*%
X197540000Y-77260000D03*
%TO.P,J18,5,Pin_5*%
%TO.N,/IN4*%
X200080000Y-77260000D03*
%TO.P,J18,6,Pin_6*%
%TO.N,/ENB*%
X202620000Y-77260000D03*
%TD*%
D25*
%TO.N,GND*%
X207120000Y-51560000D03*
D26*
%TO.N,/BCLK*%
X216500000Y-81010000D03*
%TO.N,/GPIO20*%
X213780000Y-82480000D03*
D27*
%TO.N,/BLUE1*%
X186830000Y-80870000D03*
%TO.N,/GPIO12*%
X188470000Y-80590000D03*
%TO.N,/GPIO8*%
X208375880Y-80209023D03*
%TO.N,/GPIO27*%
X206180000Y-82240000D03*
%TO.N,/BLUE2*%
X222480000Y-79640000D03*
X206550000Y-89380000D03*
%TO.N,/SIG_4*%
X166190000Y-88980000D03*
X162430000Y-68540000D03*
%TO.N,/SIG_3*%
X163290000Y-67940000D03*
X166910000Y-88310000D03*
D26*
%TO.N,/GPIO3*%
X232920000Y-97720000D03*
D27*
X181790000Y-57190000D03*
X187526250Y-61606250D03*
X212930000Y-80350000D03*
%TO.N,/GPIO2*%
X191080000Y-63990000D03*
X203750000Y-71670000D03*
X215997549Y-78542451D03*
X210210000Y-75480000D03*
X218200000Y-80170000D03*
X184420000Y-54560000D03*
D26*
%TO.N,+3.3VA*%
X223000000Y-85830000D03*
D27*
%TO.N,/GPIO9*%
X191380000Y-90580000D03*
%TO.N,/GPIO6*%
X200640000Y-83100000D03*
X203250000Y-90020000D03*
%TO.N,/GPIO14*%
X190000000Y-64020000D03*
X207380000Y-80880000D03*
X203159126Y-72348876D03*
X183740000Y-55370000D03*
%TO.N,/GPIO15*%
X183080000Y-56230000D03*
X214380000Y-79370000D03*
X188100000Y-60510000D03*
%TO.N,/GPIO24*%
X194620000Y-91240000D03*
%TO.N,/GPIO25*%
X190250000Y-89770000D03*
%TO.N,/GPIO5*%
X199250000Y-90940000D03*
%TD*%
D28*
%TO.N,/GPIO3*%
X238340000Y-101770000D02*
X246695000Y-101770000D01*
X238230000Y-101880000D02*
X238340000Y-101770000D01*
D29*
%TO.N,+3.3VA*%
X238340000Y-106850000D02*
X246695000Y-106850000D01*
X238230000Y-106960000D02*
X238340000Y-106850000D01*
D30*
%TO.N,GND*%
X207120000Y-51560000D02*
X207690000Y-52130000D01*
D28*
X234843175Y-67181825D02*
X239275000Y-62750000D01*
D31*
X189580000Y-106440000D02*
X192120000Y-106440000D01*
D30*
X153480000Y-92510000D02*
X156020000Y-92510000D01*
D29*
X241250000Y-62750000D02*
X239275000Y-62750000D01*
D28*
X234843175Y-76680000D02*
X234843175Y-70690000D01*
D31*
X167260000Y-104330000D02*
X168470000Y-105540000D01*
D29*
X236920000Y-58085000D02*
X235390000Y-56555000D01*
X175745000Y-79720000D02*
X177955000Y-81930000D01*
X239220000Y-52130000D02*
X241250000Y-54160000D01*
D31*
X184906666Y-103160000D02*
X184906666Y-104857056D01*
X167260000Y-103160000D02*
X167260000Y-104330000D01*
D30*
X158250000Y-94020000D02*
X158250000Y-98030000D01*
D29*
X236920000Y-60395000D02*
X236920000Y-58085000D01*
D31*
X184906666Y-104857056D02*
X186489610Y-106440000D01*
D30*
X162320000Y-106570000D02*
X163850000Y-106570000D01*
D32*
X200240000Y-93530000D02*
X200240000Y-97730000D01*
D31*
X186489610Y-106440000D02*
X189580000Y-106440000D01*
D30*
X161390000Y-101170000D02*
X161390000Y-105640000D01*
D29*
X181150000Y-81930000D02*
X182300000Y-80780000D01*
D30*
X207690000Y-52130000D02*
X217120000Y-52130000D01*
D29*
X241250000Y-54160000D02*
X241250000Y-62750000D01*
D33*
X195350000Y-101440000D02*
X194580000Y-102210000D01*
D29*
X217120000Y-52130000D02*
X239220000Y-52130000D01*
D33*
X193322081Y-106440000D02*
X192120000Y-106440000D01*
D31*
X168470000Y-105540000D02*
X174310000Y-105540000D01*
D30*
X163850000Y-106570000D02*
X167260000Y-103160000D01*
X156020000Y-92510000D02*
X157530000Y-94020000D01*
D33*
X196530000Y-101440000D02*
X195350000Y-101440000D01*
D30*
X161390000Y-105640000D02*
X162320000Y-106570000D01*
D33*
X194580000Y-105182081D02*
X193322081Y-106440000D01*
D30*
X157530000Y-94020000D02*
X158250000Y-94020000D01*
X158250000Y-98030000D02*
X161390000Y-101170000D01*
D31*
X174310000Y-105540000D02*
X175583333Y-104266667D01*
D29*
X177955000Y-81930000D02*
X181150000Y-81930000D01*
X239275000Y-62750000D02*
X236920000Y-60395000D01*
D32*
X200240000Y-97730000D02*
X196530000Y-101440000D01*
D33*
X194580000Y-102210000D02*
X194580000Y-105182081D01*
D31*
X175583333Y-104266667D02*
X175583333Y-102410000D01*
D28*
X234843175Y-70690000D02*
X234843175Y-67181825D01*
%TO.N,/BCLK*%
X208670000Y-88850000D02*
X207220000Y-87400000D01*
X215380000Y-88850000D02*
X208670000Y-88850000D01*
X215980000Y-83980000D02*
X216110000Y-84110000D01*
X216500000Y-81010000D02*
X215980000Y-81530000D01*
X215980000Y-81530000D02*
X215980000Y-83980000D01*
X216110000Y-84110000D02*
X216110000Y-88120000D01*
X226760000Y-68606825D02*
X228843175Y-70690000D01*
X226760000Y-60395000D02*
X226760000Y-68606825D01*
X228843175Y-76680000D02*
X228843175Y-70690000D01*
X216110000Y-88120000D02*
X215380000Y-88850000D01*
%TO.N,/GPIO19*%
X226843175Y-76680000D02*
X226843175Y-70690000D01*
X224220000Y-68066825D02*
X226843175Y-70690000D01*
X224220000Y-60395000D02*
X224220000Y-68066825D01*
%TO.N,/GPIO20*%
X202330000Y-79570000D02*
X185618003Y-79570000D01*
X181500000Y-83290000D02*
X175950000Y-83290000D01*
X185618003Y-79570000D02*
X183038003Y-82150000D01*
X213780000Y-82480000D02*
X212670000Y-81370000D01*
X234380000Y-67153175D02*
X230843175Y-70690000D01*
X234380000Y-60395000D02*
X234380000Y-67153175D01*
X175950000Y-83290000D02*
X175460000Y-83780000D01*
X175460000Y-86140000D02*
X174200000Y-87400000D01*
X175460000Y-83780000D02*
X175460000Y-86140000D01*
X230843175Y-76680000D02*
X230843175Y-70690000D01*
X183038003Y-82150000D02*
X182640000Y-82150000D01*
X182640000Y-82150000D02*
X181500000Y-83290000D01*
X212507501Y-81370000D02*
X210707501Y-79570000D01*
X212670000Y-81370000D02*
X212507501Y-81370000D01*
X210707501Y-79570000D02*
X202330000Y-79570000D01*
%TO.N,/BLUE1*%
X178460000Y-83720000D02*
X178080000Y-84100000D01*
X180340000Y-83720000D02*
X178460000Y-83720000D01*
X178080000Y-85522598D02*
X176740000Y-86862598D01*
X186830000Y-80870000D02*
X185610000Y-82090000D01*
X180530000Y-85182204D02*
X180530000Y-83910000D01*
X181467796Y-86120000D02*
X180530000Y-85182204D01*
X185610000Y-85660000D02*
X185150000Y-86120000D01*
X185610000Y-82090000D02*
X185610000Y-85660000D01*
X178080000Y-84100000D02*
X178080000Y-85522598D01*
X176740000Y-86862598D02*
X176740000Y-87400000D01*
X180530000Y-83910000D02*
X180340000Y-83720000D01*
X185150000Y-86120000D02*
X181467796Y-86120000D01*
%TO.N,/GPIO12*%
X188080000Y-80980000D02*
X188080000Y-88350000D01*
X188080000Y-88350000D02*
X187510000Y-88920000D01*
X187510000Y-88920000D02*
X187480000Y-88890000D01*
X188470000Y-80590000D02*
X188080000Y-80980000D01*
X187480000Y-88890000D02*
X183310000Y-88890000D01*
X183310000Y-88890000D02*
X181820000Y-87400000D01*
%TO.N,/GPIO8*%
X204500000Y-82550000D02*
X203690000Y-82550000D01*
X207100000Y-79950000D02*
X204500000Y-82550000D01*
X203690000Y-82550000D02*
X203600000Y-82460000D01*
X193890000Y-82460000D02*
X193320000Y-83030000D01*
X193320000Y-83030000D02*
X193320000Y-86060000D01*
X208375880Y-80209023D02*
X208116857Y-79950000D01*
X208116857Y-79950000D02*
X207100000Y-79950000D01*
X193320000Y-86060000D02*
X191980000Y-87400000D01*
X203600000Y-82460000D02*
X193890000Y-82460000D01*
%TO.N,/GPIO27*%
X206180000Y-83360000D02*
X204680000Y-84860000D01*
X206180000Y-82240000D02*
X206180000Y-83360000D01*
%TO.N,/GPIO4*%
X215280000Y-81955808D02*
X212375808Y-84860000D01*
X215280000Y-80870000D02*
X215280000Y-81955808D01*
X218843175Y-76680000D02*
X218843175Y-77306825D01*
X218843175Y-77306825D02*
X215280000Y-80870000D01*
X212375808Y-84860000D02*
X212300000Y-84860000D01*
%TO.N,/BLUE2*%
X221510000Y-88226324D02*
X220413162Y-89323162D01*
X222480000Y-82320000D02*
X222030000Y-82770000D01*
X221510000Y-83290000D02*
X221510000Y-86550000D01*
X221510000Y-86550000D02*
X221510000Y-88226324D01*
X222030000Y-82770000D02*
X221510000Y-83290000D01*
X222480000Y-79640000D02*
X222480000Y-82320000D01*
X206606838Y-89323162D02*
X206550000Y-89380000D01*
X220413162Y-89323162D02*
X206606838Y-89323162D01*
D33*
%TO.N,+5V*%
X174853333Y-99640000D02*
X173083333Y-101410000D01*
D34*
X170780000Y-93790000D02*
X170780000Y-97350000D01*
D30*
X158580000Y-89970000D02*
X158580000Y-83843210D01*
X161180000Y-66990000D02*
X175450000Y-66990000D01*
D34*
X170780000Y-97350000D02*
X167770000Y-100360000D01*
D30*
X161180000Y-81243210D02*
X161180000Y-66990000D01*
D31*
X171033333Y-100360000D02*
X173083333Y-102410000D01*
D33*
X173083333Y-101410000D02*
X173083333Y-102410000D01*
D31*
X164660000Y-100360000D02*
X167770000Y-100360000D01*
D33*
X176630000Y-99370000D02*
X176360000Y-99640000D01*
D31*
X164610000Y-100310000D02*
X164660000Y-100360000D01*
D30*
X161990000Y-100310000D02*
X164610000Y-100310000D01*
D29*
X217120000Y-54130000D02*
X237270000Y-54130000D01*
D30*
X188310000Y-54130000D02*
X217120000Y-54130000D01*
D31*
X163760000Y-103160000D02*
X163760000Y-101160000D01*
D30*
X159380000Y-96280000D02*
X159660000Y-96560000D01*
X153480000Y-89970000D02*
X156020000Y-89970000D01*
D33*
X194220000Y-108830000D02*
X178070000Y-108830000D01*
D30*
X159660000Y-96560000D02*
X159660000Y-97980000D01*
X158580000Y-83843210D02*
X161180000Y-81243210D01*
D33*
X178070000Y-108830000D02*
X178070000Y-100810000D01*
D31*
X163760000Y-101160000D02*
X164610000Y-100310000D01*
D30*
X158580000Y-89970000D02*
X159380000Y-90770000D01*
D31*
X167770000Y-100360000D02*
X171033333Y-100360000D01*
D33*
X176360000Y-99640000D02*
X174853333Y-99640000D01*
D30*
X156020000Y-89970000D02*
X158580000Y-89970000D01*
X159380000Y-90770000D02*
X159380000Y-96280000D01*
D33*
X196530000Y-106520000D02*
X194220000Y-108830000D01*
D29*
X237270000Y-54130000D02*
X239460000Y-56320000D01*
D30*
X175450000Y-66990000D02*
X188310000Y-54130000D01*
X159660000Y-97980000D02*
X161990000Y-100310000D01*
D33*
X178070000Y-100810000D02*
X176630000Y-99370000D01*
D29*
X239460000Y-56320000D02*
X239460000Y-60395000D01*
D28*
%TO.N,/SIG_2*%
X176572797Y-57830000D02*
X172632797Y-53890000D01*
X182585000Y-57830000D02*
X176572797Y-57830000D01*
X192065000Y-48350000D02*
X182585000Y-57830000D01*
X159540000Y-66982797D02*
X159540000Y-81370000D01*
X159540000Y-81370000D02*
X153480000Y-87430000D01*
X172632797Y-53890000D02*
X159540000Y-66982797D01*
%TO.N,/SIG_1*%
X192455000Y-50500000D02*
X190452402Y-50500000D01*
X159920000Y-67140199D02*
X159920000Y-81527402D01*
X176415395Y-58210000D02*
X172632797Y-54427402D01*
X194605000Y-48350000D02*
X192455000Y-50500000D01*
X172632797Y-54427402D02*
X159920000Y-67140199D01*
X156020000Y-85427402D02*
X156020000Y-87430000D01*
X159920000Y-81527402D02*
X156020000Y-85427402D01*
X190452402Y-50500000D02*
X182742401Y-58210000D01*
X182742401Y-58210000D02*
X176415395Y-58210000D01*
%TO.N,/SIG_4*%
X162430000Y-85220000D02*
X166190000Y-88980000D01*
X162430000Y-68540000D02*
X162430000Y-85220000D01*
D31*
%TO.N,+7.5V*%
X182790000Y-100150000D02*
X187190000Y-100150000D01*
X181406666Y-101533334D02*
X182790000Y-100150000D01*
X187190000Y-100150000D02*
X187306666Y-100266666D01*
X181406666Y-103160000D02*
X181406666Y-101533334D01*
X187306666Y-103250000D02*
X187340000Y-103250000D01*
X187340000Y-103250000D02*
X187990000Y-103900000D01*
X187306666Y-100266666D02*
X187306666Y-103250000D01*
X187990000Y-103900000D02*
X189580000Y-103900000D01*
X189580000Y-103900000D02*
X192120000Y-103900000D01*
D28*
%TO.N,/SIG_3*%
X163012548Y-68217452D02*
X163070000Y-68274903D01*
X163070000Y-68805097D02*
X162810000Y-69065097D01*
X163290000Y-67940000D02*
X163012548Y-68217452D01*
X162810000Y-84210000D02*
X166910000Y-88310000D01*
X162810000Y-69065097D02*
X162810000Y-84210000D01*
X163070000Y-68274903D02*
X163070000Y-68805097D01*
%TO.N,/GPIO3*%
X187526250Y-61606250D02*
X187982500Y-61150000D01*
X198050000Y-60890000D02*
X207290000Y-70130000D01*
X169205000Y-48350000D02*
X178045000Y-57190000D01*
X187982500Y-61150000D02*
X188365097Y-61150000D01*
X178045000Y-57190000D02*
X181790000Y-57190000D01*
X234890000Y-101880000D02*
X238230000Y-101880000D01*
X207290000Y-70130000D02*
X204430000Y-72990000D01*
X232920000Y-99910000D02*
X234890000Y-101880000D01*
X188365097Y-61150000D02*
X188625097Y-60890000D01*
X188625097Y-60890000D02*
X198050000Y-60890000D01*
X204430000Y-72990000D02*
X204430000Y-78810000D01*
X212562305Y-80350000D02*
X212930000Y-80350000D01*
X204430000Y-78810000D02*
X211022305Y-78810000D01*
X211022305Y-78810000D02*
X212562305Y-80350000D01*
X232920000Y-97720000D02*
X232920000Y-99910000D01*
%TO.N,/GPIO2*%
X212935098Y-75480000D02*
X215997549Y-78542451D01*
X198760000Y-71670000D02*
X203750000Y-71670000D01*
X210210000Y-75480000D02*
X212935098Y-75480000D01*
X176825000Y-48350000D02*
X183035000Y-54560000D01*
X191080000Y-63990000D02*
X198760000Y-71670000D01*
X183035000Y-54560000D02*
X184420000Y-54560000D01*
X218200000Y-80510000D02*
X217380000Y-81330000D01*
X218200000Y-80170000D02*
X218200000Y-80510000D01*
X217380000Y-81330000D02*
X217380000Y-84860000D01*
%TO.N,/DIN*%
X215020000Y-79780000D02*
X213810000Y-80990000D01*
X212664903Y-80990000D02*
X210864903Y-79190000D01*
X205190000Y-73304804D02*
X205190000Y-78050000D01*
X221060000Y-66150000D02*
X219950000Y-67260000D01*
X228480000Y-58560000D02*
X222810000Y-58560000D01*
X222810000Y-58560000D02*
X221060000Y-60310000D01*
X221060000Y-60310000D02*
X221060000Y-66150000D01*
X169300000Y-85040000D02*
X171660000Y-87400000D01*
X182073675Y-81770000D02*
X181033675Y-82810000D01*
X219950000Y-67260000D02*
X210630000Y-67260000D01*
X181033675Y-82810000D02*
X169300000Y-82810000D01*
X208050000Y-69840000D02*
X208050000Y-70444804D01*
X213810000Y-80990000D02*
X212664903Y-80990000D01*
X205190000Y-78050000D02*
X213965097Y-78050000D01*
X182880602Y-81770000D02*
X182073675Y-81770000D01*
X169300000Y-82810000D02*
X169300000Y-85040000D01*
X213965097Y-78050000D02*
X215020000Y-79104903D01*
X229300000Y-60395000D02*
X229300000Y-59380000D01*
X185460602Y-79190000D02*
X182880602Y-81770000D01*
X215020000Y-79104903D02*
X215020000Y-79780000D01*
X210864903Y-79190000D02*
X185460602Y-79190000D01*
X208050000Y-70444804D02*
X205190000Y-73304804D01*
X229300000Y-59380000D02*
X228480000Y-58560000D01*
X210630000Y-67260000D02*
X208050000Y-69840000D01*
D29*
%TO.N,/GAIN*%
X233390000Y-56555000D02*
X232455000Y-56555000D01*
X232455000Y-56555000D02*
X231840000Y-57170000D01*
X231840000Y-57170000D02*
X231840000Y-60395000D01*
D28*
%TO.N,+3.3VA*%
X232843175Y-76680000D02*
X232843175Y-70690000D01*
D29*
X219020000Y-90270000D02*
X212910000Y-90270000D01*
X238230000Y-106960000D02*
X227980000Y-106960000D01*
D28*
X223000000Y-85830000D02*
X223000000Y-87630000D01*
D29*
X220430000Y-90970000D02*
X220430000Y-90100000D01*
D28*
X232843175Y-78210000D02*
X232843175Y-76680000D01*
X223000000Y-87630000D02*
X220430000Y-90200000D01*
D33*
X196530000Y-103980000D02*
X204520000Y-103980000D01*
D29*
X212200000Y-90980000D02*
X212200000Y-92440000D01*
D33*
X212200000Y-96300000D02*
X212200000Y-92440000D01*
X204520000Y-103980000D02*
X212200000Y-96300000D01*
D28*
X224843175Y-76680000D02*
X224843175Y-77690000D01*
X225493175Y-78340000D02*
X232893175Y-78340000D01*
X232893175Y-78260000D02*
X232843175Y-78210000D01*
X232893175Y-78340000D02*
X232893175Y-78260000D01*
X224843175Y-77690000D02*
X225493175Y-78340000D01*
D29*
X220430000Y-90970000D02*
X219720000Y-90970000D01*
X212910000Y-90270000D02*
X212200000Y-90980000D01*
X220430000Y-99410000D02*
X220430000Y-90970000D01*
X227980000Y-106960000D02*
X220430000Y-99410000D01*
X219720000Y-90970000D02*
X219020000Y-90270000D01*
D28*
X220430000Y-90200000D02*
X220430000Y-90100000D01*
%TO.N,/GPIO9*%
X182460000Y-93530000D02*
X185410000Y-90580000D01*
X185410000Y-90580000D02*
X191380000Y-90580000D01*
%TO.N,/CS*%
X192640000Y-90600000D02*
X189440000Y-87400000D01*
X197700000Y-93530000D02*
X197700000Y-91160000D01*
X197140000Y-90600000D02*
X192640000Y-90600000D01*
X197700000Y-91160000D02*
X197140000Y-90600000D01*
%TO.N,/GPIO13*%
X161490000Y-92950000D02*
X166240000Y-92950000D01*
X176750000Y-90440000D02*
X177990000Y-89200000D01*
X166240000Y-92950000D02*
X168750000Y-90440000D01*
X177990000Y-86150000D02*
X179280000Y-84860000D01*
X177990000Y-89200000D02*
X177990000Y-86150000D01*
X168750000Y-90440000D02*
X176750000Y-90440000D01*
%TO.N,/DC{slash}RS*%
X198610000Y-95410000D02*
X199010000Y-95010000D01*
X202900000Y-91670000D02*
X205880000Y-88690000D01*
X192620000Y-94890000D02*
X193140000Y-95410000D01*
X193140000Y-95410000D02*
X198610000Y-95410000D01*
X205880000Y-86200000D02*
X207220000Y-84860000D01*
X199010000Y-91670000D02*
X202900000Y-91670000D01*
X199010000Y-95010000D02*
X199010000Y-91670000D01*
X205880000Y-88690000D02*
X205880000Y-86200000D01*
X192620000Y-93530000D02*
X192620000Y-94890000D01*
%TO.N,/GPIO6*%
X200880000Y-88380000D02*
X202520000Y-90020000D01*
X200640000Y-83100000D02*
X200880000Y-83340000D01*
X202520000Y-90020000D02*
X203250000Y-90020000D01*
X200880000Y-83340000D02*
X200880000Y-88380000D01*
%TO.N,/GPIO14*%
X181305000Y-55370000D02*
X183740000Y-55370000D01*
X190000000Y-64020000D02*
X198328876Y-72348876D01*
X209730000Y-83230000D02*
X210910000Y-83230000D01*
X174285000Y-48350000D02*
X181305000Y-55370000D01*
X207380000Y-80880000D02*
X209730000Y-83230000D01*
X210910000Y-86010000D02*
X212300000Y-87400000D01*
X210910000Y-83230000D02*
X210910000Y-86010000D01*
X198328876Y-72348876D02*
X203159126Y-72348876D01*
%TO.N,/GPIO15*%
X198207401Y-60510000D02*
X207670000Y-69972599D01*
X204810000Y-78430000D02*
X213440000Y-78430000D01*
X213440000Y-78430000D02*
X214380000Y-79370000D01*
X178370000Y-56730000D02*
X178870000Y-56230000D01*
X207670000Y-69972599D02*
X207670000Y-70287402D01*
X204810000Y-73147402D02*
X204810000Y-78430000D01*
X171745000Y-48350000D02*
X171745000Y-50225000D01*
X173350000Y-51830000D02*
X178250000Y-56730000D01*
X178870000Y-56230000D02*
X183080000Y-56230000D01*
X171745000Y-50225000D02*
X173350000Y-51830000D01*
X207670000Y-70287402D02*
X204810000Y-73147402D01*
X178250000Y-56730000D02*
X178370000Y-56730000D01*
X188100000Y-60510000D02*
X198207401Y-60510000D01*
%TO.N,/GPIO26*%
X172490000Y-89830000D02*
X172890000Y-89430000D01*
X172890000Y-89430000D02*
X172890000Y-86170000D01*
X172890000Y-86170000D02*
X174200000Y-84860000D01*
X162070000Y-89830000D02*
X172490000Y-89830000D01*
X161490000Y-90410000D02*
X162070000Y-89830000D01*
%TO.N,/GPIO24*%
X187290000Y-91240000D02*
X194620000Y-91240000D01*
X185000000Y-93530000D02*
X187290000Y-91240000D01*
%TO.N,/GPIO25*%
X189980000Y-89500000D02*
X190250000Y-89770000D01*
X164440000Y-95490000D02*
X168830000Y-91100000D01*
X161490000Y-95490000D02*
X164440000Y-95490000D01*
X168830000Y-91100000D02*
X177390000Y-91100000D01*
X177390000Y-91100000D02*
X178990000Y-89500000D01*
X178990000Y-89500000D02*
X189980000Y-89500000D01*
%TO.N,/GPIO5*%
X183590000Y-84860000D02*
X184360000Y-84860000D01*
X185775405Y-79950000D02*
X183195404Y-82530000D01*
X197491102Y-89181102D02*
X191791102Y-89181102D01*
X183195404Y-82530000D02*
X182797402Y-82530000D01*
X190740000Y-88130000D02*
X190740000Y-79950000D01*
X191791102Y-89181102D02*
X190740000Y-88130000D01*
X190740000Y-79950000D02*
X185775405Y-79950000D01*
X199250000Y-90940000D02*
X197491102Y-89181102D01*
X182797402Y-82530000D02*
X182028701Y-83298701D01*
X182028701Y-83298701D02*
X183590000Y-84860000D01*
D29*
%TO.N,+12V*%
X175095000Y-77830000D02*
X180300000Y-77830000D01*
X173205000Y-79720000D02*
X175095000Y-77830000D01*
%TO.N,/Motor 1 (M1)*%
X247150000Y-73850000D02*
X245600000Y-72300000D01*
X245600000Y-79690000D02*
X246970000Y-79690000D01*
X246970000Y-79690000D02*
X247150000Y-79510000D01*
X247150000Y-79510000D02*
X247150000Y-73850000D01*
%TO.N,/Motor 1 (M2)*%
X243210000Y-64690000D02*
X243210000Y-77390000D01*
X243510000Y-77690000D02*
X245600000Y-77690000D01*
X245600000Y-62300000D02*
X243210000Y-64690000D01*
X243210000Y-77390000D02*
X243510000Y-77690000D01*
%TO.N,/Motor 2 (M2)*%
X153460000Y-80130000D02*
X152430000Y-79100000D01*
X155700000Y-80130000D02*
X153460000Y-80130000D01*
X155700000Y-75830000D02*
X155700000Y-72620000D01*
X152430000Y-79100000D02*
X155700000Y-75830000D01*
%TO.N,/Motor 2 (M1)*%
X159000000Y-76630000D02*
X159000000Y-65920000D01*
X155700000Y-78130000D02*
X157500000Y-78130000D01*
X159000000Y-65920000D02*
X155700000Y-62620000D01*
X157500000Y-78130000D02*
X159000000Y-76630000D01*
D28*
%TO.N,/ENB*%
X192065000Y-73750000D02*
X194055000Y-75740000D01*
X201100000Y-75740000D02*
X202620000Y-77260000D01*
X194055000Y-75740000D02*
X201100000Y-75740000D01*
%TO.N,/IN4*%
X198940000Y-76120000D02*
X191895000Y-76120000D01*
X191895000Y-76120000D02*
X189525000Y-73750000D01*
X200080000Y-77260000D02*
X198940000Y-76120000D01*
D29*
%TO.N,/Battery ADC*%
X180300000Y-80780000D02*
X180300000Y-79830000D01*
X181150000Y-76680000D02*
X179755000Y-76680000D01*
X179755000Y-76680000D02*
X176825000Y-73750000D01*
X180300000Y-79830000D02*
X182300000Y-77830000D01*
X182300000Y-77830000D02*
X181150000Y-76680000D01*
D32*
%TO.N,/BLUE1_EAR*%
X115855000Y-60410000D02*
X115855000Y-57612394D01*
X124955000Y-49660000D02*
X126155000Y-48460000D01*
X114105000Y-67000000D02*
X114105000Y-62160000D01*
X123807394Y-49660000D02*
X124955000Y-49660000D01*
X114105000Y-62160000D02*
X115855000Y-60410000D01*
X115855000Y-57612394D02*
X123807394Y-49660000D01*
%TO.N,GND_EAR*%
X129380000Y-87530000D02*
X129380000Y-99690000D01*
X129380000Y-99690000D02*
X128920000Y-99690000D01*
X126140000Y-61600000D02*
X128455000Y-59285000D01*
X127490000Y-85640000D02*
X129380000Y-87530000D01*
X119770000Y-88120000D02*
X119770000Y-85790000D01*
X128920000Y-99690000D02*
X127350000Y-101260000D01*
X119770000Y-85790000D02*
X119840000Y-85720000D01*
X128455000Y-59285000D02*
X128455000Y-48360000D01*
X120415000Y-46580000D02*
X118535000Y-48460000D01*
X128455000Y-48360000D02*
X126675000Y-46580000D01*
X127410000Y-85720000D02*
X127490000Y-85640000D01*
X119840000Y-85720000D02*
X127410000Y-85720000D01*
X126675000Y-46580000D02*
X120415000Y-46580000D01*
%TO.N,/RED2_EAR*%
X118450000Y-95887394D02*
X124850000Y-89487394D01*
X115510000Y-103790000D02*
X118450000Y-100850000D01*
X124850000Y-89487394D02*
X124850000Y-88120000D01*
X115510000Y-106560000D02*
X115510000Y-103790000D01*
X118450000Y-100850000D02*
X118450000Y-95887394D01*
%TD*%
M02*
